<svg xmlns="http://www.w3.org/2000/svg" width="11308" height="7195" viewBox="0 0 11308 7195" version="1.1">
	<path d="M 8279.734 13.173 C 8277.252 17.753, 8152.703 249.200, 8002.958 527.500 C 7794.092 915.677, 7722.493 1047.863, 7695.468 1095.184 C 7676.094 1129.110, 7658.801 1160.328, 7657.041 1164.557 C 7650.084 1181.267, 7646.824 1204.913, 7648.923 1223.429 C 7651.195 1243.465, 7651.190 1243.453, 7694.241 1342.500 C 7743.111 1454.934, 7779.415 1534.398, 7789.485 1550.975 C 7793.033 1556.816, 7793.274 1557, 7797.377 1557 C 7802.283 1557, 7809.505 1552.934, 7812.706 1548.369 C 7818.470 1540.151, 7975.993 1277.099, 7983.429 1263.276 C 7988.229 1254.353, 7992.608 1247.153, 7993.161 1247.276 C 7993.714 1247.399, 8054.096 1136.179, 8127.343 1000.121 C 8200.591 864.063, 8260.877 752.688, 8261.313 752.621 C 8262.032 752.511, 8406.772 1066.542, 8833.709 1994.500 C 8915.443 2172.150, 8982.582 2317.788, 8982.908 2318.139 C 8983.234 2318.491, 9336.750 2336.228, 9768.500 2357.555 C 10200.250 2378.882, 10553.817 2396.597, 10554.205 2396.921 C 10554.593 2397.245, 10460.139 2496.058, 10344.307 2616.505 C 10228.475 2736.952, 10072.897 2898.725, 9998.578 2976 C 9830.818 3150.431, 9410.929 3587.204, 9406.242 3592.154 L 9402.782 3595.808 9529.811 3918.154 C 9639.291 4195.970, 9980.194 5060.930, 9981.760 5064.865 C 9982.165 5065.886, 9981.735 5066.051, 9980.054 5065.517 C 9978.818 5065.125, 9891.458 5026.837, 9785.920 4980.434 C 9680.383 4934.030, 9589.414 4894.054, 9583.767 4891.597 C 9556.417 4879.697, 9531.957 4877.441, 9507.412 4884.554 C 9491.321 4889.217, 9490.164 4889.822, 9398 4941.800 C 9287.086 5004.353, 9208.971 5051.454, 9193.750 5064.956 C 9190.777 5067.594, 9189 5070, 9189 5071.389 C 9189 5075.401, 9193.896 5083.656, 9197.936 5086.456 C 9200.065 5087.931, 9267.213 5119.076, 9347.153 5155.667 C 9470.411 5212.086, 9501.905 5226.071, 9554.384 5247.694 C 9588.420 5261.717, 9833.876 5365.830, 10099.841 5479.055 C 10365.806 5592.281, 10583.593 5684.740, 10583.812 5684.521 C 10584.031 5684.302, 10565.983 5637.858, 10543.706 5581.311 C 10521.429 5524.765, 10395.109 5204.225, 10262.996 4869 C 10130.884 4533.775, 9970.863 4127.729, 9907.396 3966.675 C 9843.928 3805.622, 9792 3673.454, 9792 3672.969 C 9792 3672.484, 9821.138 3641.803, 9856.750 3604.788 C 9892.362 3567.773, 10011.511 3443.891, 10121.524 3329.494 C 10550.216 2883.720, 10935.582 2483.016, 11115.460 2296 L 11303.498 2100.500 11297.499 2099.760 C 11294.199 2099.354, 10821.250 2075.794, 10246.500 2047.405 C 9671.750 2019.017, 9201.457 1995.725, 9201.404 1995.645 C 9201.351 1995.565, 8995.341 1547.975, 8743.603 1001 C 8491.866 454.025, 8285.527 6.128, 8285.073 5.673 C 8284.618 5.218, 8282.215 8.593, 8279.734 13.173 M 2835.051 1687.142 C 2813.962 1689.360, 2787.968 1696.394, 2769.800 1704.800 C 2741.586 1717.853, 2711.987 1741.173, 2691.560 1766.441 C 2687.532 1771.423, 2082.690 2559.625, 1347.465 3518 C 393.999 4760.855, 9.827 5262.342, 7.671 5266.923 C 3.810 5275.130, 2.892 5286.149, 5.432 5293.796 C 9.488 5306.006, 22.098 5319.067, 34.775 5324.188 L 40.500 5326.500 388.500 5326.500 C 720.496 5326.500, 737.006 5326.416, 747.500 5324.678 C 785.620 5318.363, 816.374 5305.091, 846 5282.169 C 858.544 5272.464, 877.039 5253.378, 889.295 5237.493 C 895.232 5229.797, 1099.982 4963.862, 1344.295 4646.526 C 1588.608 4329.190, 1788.898 4069.540, 1789.385 4069.526 C 1789.872 4069.512, 1991.598 4332.525, 2237.664 4654 C 2483.731 4975.475, 2688.057 5242.235, 2691.723 5246.800 C 2700.945 5258.286, 2719.413 5275.960, 2732.265 5285.601 C 2759.571 5306.084, 2790.820 5319.103, 2826.096 5324.693 C 2836.886 5326.403, 2851.875 5326.500, 3104.500 5326.500 C 3359.759 5326.500, 3371.782 5326.420, 3377.920 5324.679 C 3398.676 5318.790, 3410.684 5306.003, 3415.652 5284.500 C 3417.446 5276.735, 3417.500 5224.491, 3417.500 3506.500 C 3417.500 1788.509, 3417.446 1736.265, 3415.652 1728.500 C 3410.722 1707.163, 3399.093 1694.597, 3378.500 1688.357 C 3372.770 1686.621, 3360.580 1686.532, 3108 1686.396 C 2959.596 1686.316, 2839.791 1686.643, 2835.051 1687.142 M 4317.638 1687.579 C 4295.916 1692.860, 4278.168 1710.550, 4272.541 1732.530 C 4271.152 1737.956, 4271.022 1915.726, 4271.249 3509.030 L 4271.500 5279.500 4273.878 5285.858 C 4276.943 5294.052, 4284.804 5305.777, 4290.727 5310.991 C 4297.012 5316.524, 4305.162 5321.343, 4313 5324.162 L 4319.500 5326.500 5110.500 5326.500 C 5863.969 5326.500, 5901.974 5326.416, 5911.500 5324.723 C 5955.418 5316.920, 5990.315 5299.003, 6022.843 5267.558 C 6027.981 5262.591, 6035.225 5254.921, 6038.940 5250.513 C 6042.655 5246.106, 6132.461 5130.225, 6238.509 4993 C 6344.557 4855.775, 6432.608 4741.851, 6434.178 4739.836 C 6438.954 4733.704, 6442.243 4725.329, 6442.771 4717.955 C 6443.359 4709.743, 6441.838 4702.736, 6437.457 4693.466 C 6431.569 4681.007, 6422.752 4673.050, 6410.042 4668.726 L 6403.500 4666.500 5669.750 4666.243 L 4936 4665.987 4936 3200.653 C 4936 1751.617, 4935.978 1735.235, 4934.052 1727.703 C 4928.731 1706.898, 4916.732 1694.825, 4895.314 1688.725 L 4887.500 1686.500 4605.500 1686.327 C 4364.419 1686.179, 4322.649 1686.361, 4317.638 1687.579 M 6995.191 1688.019 C 6974.299 1693.510, 6956.976 1710.866, 6951.571 1731.724 C 6950.146 1737.226, 6950 1901.815, 6950 3506.500 C 6950 5117.680, 6950.141 5275.759, 6951.585 5281.356 C 6956.434 5300.150, 6971.912 5316.797, 6991.023 5323.771 L 6998.500 5326.500 7783.500 5326.773 C 8484.030 5327.017, 8569.957 5326.881, 8582.041 5325.511 C 8610.421 5322.292, 8636.212 5313.740, 8659.756 5299.742 C 8681.289 5286.939, 8703.199 5268.209, 8718.819 5249.250 C 8723.237 5243.887, 8814.194 5126.550, 8920.946 4988.500 C 9038.853 4836.026, 9116.227 4735.123, 9118.062 4731.444 C 9123.573 4720.398, 9123.015 4707.363, 9116.435 4693.455 C 9110.715 4681.364, 9101.405 4672.971, 9089 4668.725 L 9082.500 4666.500 8348.750 4666.243 L 7615 4665.987 7614.983 3201.243 C 7614.967 1916.572, 7614.785 1735.639, 7613.496 1729.500 C 7609.058 1708.363, 7595.351 1694.427, 7572.985 1688.314 C 7566.858 1686.639, 7550.934 1686.529, 7284.500 1686.319 C 7009.189 1686.103, 7002.327 1686.143, 6995.191 1688.019 M 2754.743 2812.750 C 2750.133 2817.900, 2222.011 3505.659, 2222.021 3506.500 C 2222.032 3507.409, 2745.683 4189.160, 2753.544 4198.500 L 2756.910 4202.500 2756.955 3506.750 C 2756.980 3124.087, 2756.845 2811, 2756.655 2811 C 2756.465 2811, 2755.605 2811.787, 2754.743 2812.750 M 868.404 5833.071 C 779.212 5836.827, 693.465 5864.490, 618.663 5913.638 C 554.616 5955.720, 506.613 6008.941, 473.970 6074.061 C 445.563 6130.729, 433.638 6189.250, 436.141 6259.707 C 440.214 6374.364, 488.653 6465.086, 582.200 6533.262 C 627.870 6566.547, 682.982 6591.613, 746.500 6607.992 C 754.750 6610.119, 810.325 6621.836, 870 6634.029 C 929.675 6646.222, 983.818 6657.727, 990.317 6659.595 C 1014.407 6666.521, 1035.183 6675.881, 1053.596 6688.104 C 1067.619 6697.413, 1086.908 6716.484, 1095.804 6729.833 C 1113.967 6757.089, 1121.678 6786.978, 1119.011 6819.786 C 1115.939 6857.564, 1102.371 6886.952, 1075.974 6913 C 1042.257 6946.272, 996.043 6963.316, 929.491 6967.023 C 874.601 6970.080, 825.399 6960.933, 772 6937.744 C 720.680 6915.457, 673.010 6882.717, 616.079 6830.655 C 606.529 6821.922, 604.330 6820.540, 598.425 6819.560 C 591.905 6818.477, 585.243 6820.681, 580.717 6825.417 C 576.010 6830.342, 460.821 6978.651, 456.865 6984.880 C 453.125 6990.769, 452.286 6996.843, 454.436 7002.473 C 458.743 7013.750, 502.012 7054.150, 537.639 7080.159 C 580.708 7111.601, 637.609 7140.930, 690.619 7159.010 C 744.271 7177.310, 790.907 7187.281, 848 7192.661 C 870.715 7194.801, 938.822 7195.126, 960 7193.195 C 1035.283 7186.330, 1088.124 7172.184, 1147.500 7143 C 1171.109 7131.396, 1189.974 7120.402, 1208.751 7107.306 C 1262.933 7069.517, 1307.221 7019.256, 1335.909 6963 C 1371.985 6892.258, 1385.296 6817.691, 1375.435 6741.588 C 1367.570 6680.889, 1343.704 6622.669, 1306.219 6572.743 C 1253.120 6502.021, 1171.803 6449.057, 1072.500 6420.517 C 1048.393 6413.589, 1031.978 6410.122, 928 6390 C 873.825 6379.515, 825.855 6370.076, 821.399 6369.023 C 803.504 6364.794, 777.218 6355.102, 765 6348.229 C 726.983 6326.843, 703.017 6297.115, 693.478 6259.513 C 677.802 6197.714, 704.609 6133.997, 762.512 6095.429 C 781.444 6082.819, 807.480 6071.441, 830.922 6065.534 C 896.041 6049.125, 975.142 6059.981, 1044.769 6094.884 C 1080.107 6112.599, 1105.444 6130.463, 1131.500 6156.037 C 1139.200 6163.594, 1147.075 6170.574, 1149 6171.546 C 1153.963 6174.054, 1162.720 6173.798, 1168.551 6170.975 C 1172.142 6169.237, 1188.085 6153.206, 1240.334 6098.797 C 1277.275 6060.328, 1308.513 6027.015, 1309.750 6024.769 C 1314.407 6016.317, 1312.198 6009.168, 1300.795 5995.788 C 1266.584 5955.645, 1215.650 5918.465, 1152.500 5887.534 C 1093.742 5858.755, 1032.912 5842.249, 960.802 5835.516 C 946.559 5834.186, 894.601 5831.789, 888.500 5832.180 C 887.400 5832.251, 878.357 5832.651, 868.404 5833.071 M 3868 5832.625 C 3765.075 5836.189, 3675.375 5858.827, 3587 5903.542 C 3446.182 5974.793, 3339.661 6090.154, 3276.163 6240.175 C 3252.356 6296.422, 3237.293 6352.975, 3229.599 6415 C 3225.916 6444.695, 3225.007 6457.890, 3224.331 6491.500 C 3221.889 6612.919, 3246.668 6724.665, 3299.060 6828.500 C 3361.376 6952.005, 3455.129 7048.046, 3576.500 7112.710 C 3659.071 7156.703, 3746.159 7181.488, 3841 7187.987 C 3860.002 7189.289, 3915.258 7189.277, 3935.517 7187.966 C 4083.029 7178.423, 4218.568 7124.160, 4329.981 7030.043 C 4438.970 6937.973, 4519.950 6805.444, 4551.812 6667 C 4580.093 6544.118, 4575.073 6415.047, 4537.603 6301.642 C 4492.214 6164.272, 4403.535 6041.974, 4290.500 5960.862 C 4185.160 5885.271, 4066.754 5842.629, 3938.500 5834.094 C 3921.383 5832.955, 3882.109 5832.136, 3868 5832.625 M 8315.500 5833.036 C 8246.417 5835.952, 8183.088 5851.985, 8120.500 5882.402 C 8034.586 5924.156, 7969.984 5983.742, 7927.973 6059.980 C 7898.644 6113.205, 7884.194 6167.040, 7882.337 6230 C 7879.788 6316.412, 7902.286 6393.445, 7947.857 6454.334 C 7960.442 6471.151, 7968.438 6480.207, 7984.715 6496.077 C 8030.914 6541.121, 8086.126 6573.784, 8154.500 6596.518 C 8185.898 6606.958, 8201.300 6610.526, 8316.318 6634.008 C 8426.774 6656.559, 8432.526 6657.844, 8450.103 6663.905 C 8486.930 6676.604, 8512.522 6693.240, 8533.105 6717.860 C 8557.011 6746.457, 8567.147 6776.549, 8565.657 6814.500 C 8564.093 6854.311, 8551.138 6883.990, 8523.066 6912.070 C 8488.453 6946.695, 8444.026 6963.232, 8375.425 6967.027 C 8330.995 6969.485, 8292.102 6964.179, 8250.500 6949.984 C 8187.443 6928.467, 8135.319 6895.748, 8067.959 6835.399 C 8051.779 6820.903, 8049.531 6819.562, 8041.500 6819.619 C 8034.856 6819.666, 8030.886 6821.308, 8026.898 6825.661 C 8020.428 6832.721, 7904.303 6982.986, 7902.277 6986.919 C 7898.891 6993.493, 7899.167 7000.295, 7903.071 7006.452 C 7907.143 7012.872, 7934.334 7039.935, 7950 7053.158 C 7987.439 7084.761, 8024.128 7108.685, 8068.500 7130.429 C 8137.560 7164.272, 8213.204 7185.150, 8294 7192.668 C 8320.289 7195.114, 8386.095 7195.111, 8411.994 7192.664 C 8484.929 7185.770, 8541.856 7169.864, 8600.500 7139.992 C 8644.402 7117.630, 8677.228 7093.938, 8710.541 7060.571 C 8730.164 7040.916, 8743.936 7024.638, 8757.130 7005.500 C 8792.246 6954.568, 8814.206 6897.105, 8822.670 6834 C 8824.952 6816.984, 8825.243 6766.591, 8823.158 6749.500 C 8814.620 6679.524, 8788.160 6616.225, 8745.082 6562.725 C 8692.405 6497.302, 8613.191 6447.438, 8519.292 6420.590 C 8493.666 6413.264, 8483.298 6411.072, 8374.789 6390.042 C 8317.840 6379.004, 8265.555 6368.414, 8258.601 6366.508 C 8192.078 6348.276, 8150.986 6309.709, 8138.460 6253.748 C 8137.501 6249.466, 8136.616 6239.520, 8136.297 6229.445 C 8135.422 6201.796, 8139.126 6184.402, 8150.977 6160.500 C 8171.964 6118.171, 8209.553 6087.541, 8262 6070.028 C 8304.479 6055.843, 8358.070 6054.222, 8408.812 6065.588 C 8453.286 6075.549, 8496.787 6094.367, 8533.961 6119.725 C 8551.746 6131.856, 8563.565 6141.590, 8579 6156.818 C 8586.425 6164.144, 8593.824 6170.838, 8595.442 6171.694 C 8599.567 6173.876, 8609.674 6173.723, 8614.558 6171.405 C 8619.794 6168.921, 8622.162 6166.541, 8689.153 6096.464 C 8761.079 6021.223, 8756.628 6026.094, 8757.956 6021.164 C 8760.278 6012.542, 8757.201 6006.700, 8740.536 5988.088 C 8716.693 5961.459, 8680.264 5932.969, 8639.500 5909.071 C 8620.925 5898.181, 8581.822 5878.777, 8565 5872.102 C 8516.436 5852.832, 8465.123 5840.965, 8406.802 5835.516 C 8392.510 5834.181, 8340.509 5831.785, 8334.500 5832.185 C 8333.400 5832.258, 8324.850 5832.641, 8315.500 5833.036 M 1822.004 5858.247 C 1817.824 5860.757, 1815.949 5862.725, 1813.793 5866.864 L 1811 5872.228 1811.006 6506.364 C 1811.010 6956.452, 1811.324 7141.626, 1812.089 7144.381 C 1812.746 7146.749, 1815.024 7150.119, 1817.934 7153.029 C 1821.800 7156.895, 1823.729 7158.010, 1828.144 7158.926 C 1832.032 7159.733, 1862.128 7159.977, 1933.543 7159.778 C 2028.331 7159.514, 2033.719 7159.404, 2037.737 7157.647 C 2043.587 7155.088, 2047.571 7150.228, 2048.900 7144.030 C 2049.692 7140.338, 2050 6992.301, 2050 6615.451 L 2050 6092 2323.558 6092 L 2597.117 6092 2592.712 6097.750 C 2590.290 6100.913, 2509.843 6205.650, 2413.941 6330.500 C 2318.039 6455.350, 2238.513 6559.525, 2237.215 6562 C 2233.310 6569.446, 2235.856 6577.677, 2243.329 6581.765 C 2246.292 6583.386, 2254.879 6583.500, 2374 6583.500 C 2491.636 6583.500, 2502.021 6583.366, 2508.230 6581.769 C 2522.229 6578.168, 2535.152 6570.669, 2545.157 6560.340 C 2551.613 6553.674, 2825.683 6195.401, 2830.752 6187 C 2832.577 6183.975, 2835.292 6177.900, 2836.785 6173.500 L 2839.500 6165.500 2839.772 6018.907 L 2840.045 5872.314 2837.272 5867.045 C 2835.595 5863.856, 2832.783 5860.536, 2830.152 5858.638 L 2825.803 5855.500 2326.612 5855.247 L 1827.421 5854.994 1822.004 5858.247 M 5039.444 5856.885 C 5033.606 5859.539, 5028.319 5866.139, 5027.033 5872.378 C 5026.297 5875.949, 5026.057 6069.240, 5026.239 6510.578 L 5026.500 7143.657 5029.526 7148.552 C 5031.402 7151.586, 5034.414 7154.598, 5037.448 7156.474 L 5042.343 7159.500 5145.922 7159.500 L 5249.500 7159.500 5254.243 7157.164 C 5259.303 7154.672, 5261.989 7151.578, 5263.847 7146.101 C 5264.712 7143.551, 5265 7011.415, 5265 6617.351 L 5265 6092 5538.559 6092 C 5757.147 6092, 5811.965 6092.251, 5811.354 6093.250 C 5810.934 6093.938, 5727.995 6202.168, 5627.045 6333.763 C 5526.095 6465.358, 5442.459 6574.933, 5441.188 6577.263 C 5438.654 6581.905, 5438.670 6586.627, 5441.235 6591.769 C 5443.401 6596.111, 5853.469 7129.665, 5859.385 7135.838 C 5869.495 7146.388, 5882.747 7154.162, 5896.770 7157.769 C 5902.979 7159.366, 5913.347 7159.500, 6030.676 7159.500 L 6157.853 7159.500 6160.676 7157.408 C 6167.661 7152.233, 6170.107 7142.975, 6166.389 7135.785 C 6165.502 7134.071, 6070.489 7009.556, 5955.248 6859.084 C 5840.007 6708.613, 5745.378 6585.050, 5744.963 6584.500 C 5744.540 6583.941, 5809.258 6498.370, 5891.685 6390.500 C 5972.797 6284.350, 6041.241 6194.357, 6043.781 6190.516 C 6046.321 6186.675, 6049.772 6179.700, 6051.450 6175.016 L 6054.500 6166.500 6054.500 6017.927 L 6054.500 5869.354 6051.741 5865.186 C 6050.224 5862.893, 6047.107 5859.776, 6044.815 5858.259 L 6040.646 5855.500 5542.073 5855.270 C 5059.442 5855.048, 5043.370 5855.100, 5039.444 5856.885 M 6508.500 5856.879 C 6503.958 5858.962, 6499.590 5863.045, 6497.157 5867.479 C 6495.645 5870.236, 6495.500 5879.451, 6495.500 5973 L 6495.500 6075.500 6498 6079.956 C 6501.033 6085.362, 6507.265 6089.935, 6513.144 6091.071 C 6515.540 6091.534, 6594.786 6091.932, 6689.246 6091.956 L 6860.993 6092 6861.246 6619.823 L 6861.500 7147.647 6864 7151.338 C 6865.379 7153.374, 6868.518 7156.032, 6871 7157.265 L 6875.500 7159.500 6978.500 7159.500 C 7059.172 7159.500, 7082.274 7159.225, 7085.072 7158.231 C 7089.471 7156.669, 7094.354 7151.634, 7095.866 7147.101 C 7096.706 7144.584, 7097 7007.211, 7097 6617.864 L 7097 6092.027 7307.750 6091.764 C 7510.770 6091.510, 7518.637 6091.432, 7522.234 6089.644 C 7528.690 6086.434, 7531.952 6078.791, 7529.680 6072.198 C 7527.798 6066.735, 7389.550 5885.478, 7380.417 5876.500 C 7372.731 5868.944, 7365.576 5864.212, 7355.965 5860.330 C 7341.970 5854.677, 7371.111 5855.034, 6924.500 5855.039 C 6526.981 5855.044, 6512.359 5855.108, 6508.500 5856.879 M 3873 6058.576 C 3871.075 6058.798, 3863.903 6059.464, 3857.061 6060.056 C 3783.617 6066.413, 3706.240 6096.888, 3644.160 6143.905 C 3612.569 6167.832, 3581.246 6199.423, 3556.317 6232.503 C 3521.867 6278.217, 3491.668 6340.665, 3477.566 6395.349 C 3467.137 6435.788, 3463.028 6469.312, 3463.010 6514.089 C 3462.985 6580.176, 3474.514 6635.226, 3500.690 6694 C 3537.120 6775.799, 3594.591 6844.601, 3666.500 6892.498 C 3726.587 6932.520, 3786.872 6954.443, 3858 6962.136 C 3875.367 6964.015, 3916.423 6963.744, 3934.500 6961.631 C 3986.481 6955.556, 4031.702 6941.728, 4078.500 6917.598 C 4165.589 6872.692, 4235.755 6800.904, 4278.965 6712.500 C 4303.714 6661.867, 4317.614 6613.810, 4323.653 6558 C 4325.709 6538.995, 4325.965 6488.081, 4324.105 6468 C 4319.168 6414.716, 4307.781 6371.506, 4285.893 6323 C 4252.047 6247.996, 4200.671 6185.282, 4134.285 6137.932 C 4109.476 6120.237, 4070.653 6098.972, 4043 6087.931 C 4007.372 6073.705, 3973.305 6065.080, 3934.500 6060.459 C 3922.161 6058.990, 3880.482 6057.714, 3873 6058.576" stroke="none" fill="#000000" fill-rule="evenodd"/>
</svg>